<svg xmlns="http://www.w3.org/2000/svg" width="321" height="254" viewBox="0 0 321 254" version="1.1"><path d="M 9.718 59.092 C 7.637 59.581, 4.600 60.673, 2.968 61.517 L 0 63.051 0 82.075 L 0 101.098 4.250 103.027 C 9.434 105.380, 17.705 105.568, 22.782 103.447 C 33.373 99.023, 39.946 85.941, 37.026 75.098 C 35.346 68.857, 27.099 60.766, 20.803 59.181 C 15.528 57.852, 14.998 57.848, 9.718 59.092 M 242.803 101.377 C 233.253 103.993, 226.518 110.697, 224.978 119.121 L 224.269 123 236.634 123 L 249 123 249 135.132 L 249 147.263 253.072 146.717 C 261.640 145.568, 269.961 136.411, 271.448 126.495 C 273.808 110.761, 258.273 97.139, 242.803 101.377" stroke="none" fill="#f3543c" fill-rule="evenodd"/><path d="M 127.500 31.640 C 99.267 36.101, 76.965 49.821, 62.040 71.909 C 43.686 99.071, 41.851 138.231, 57.589 166.864 C 70.944 191.159, 94.967 208.234, 123.500 213.711 C 134.123 215.750, 152.599 214.952, 162.933 212.009 C 179.790 207.207, 192.696 199.084, 209.951 182.414 C 215.879 176.686, 221.015 172, 221.365 172 C 221.714 172, 222 181.225, 222 192.500 L 222 213 236 213 L 250 213 250 186.160 C 250 171.398, 249.704 151.148, 249.342 141.160 L 248.684 123 203.842 123 L 159 123 159 137 L 159 151 179.750 151.021 L 200.500 151.042 188 163.359 C 177.323 173.880, 174.260 176.289, 167 179.877 C 148.790 188.875, 130.673 188.925, 111.500 180.030 C 90.021 170.066, 76.679 150.494, 75.291 126.912 C 73.566 97.588, 90.707 72.428, 118.803 63.047 C 140.642 55.756, 159.979 59.288, 179.788 74.187 L 184.076 77.412 194.146 67.342 L 204.217 57.271 196.358 51.129 C 179.537 37.981, 163.389 32.040, 143 31.498 C 136.125 31.315, 129.150 31.379, 127.500 31.640 M 239.387 58.940 C 226.992 60.899, 214.681 66.783, 205.583 75.098 C 194.923 84.841, 186.575 100.413, 185.801 112 L 185.500 116.500 197.859 116.782 C 206.708 116.983, 210.651 116.704, 211.742 115.799 C 212.580 115.104, 214.662 111.602, 216.370 108.018 C 220.216 99.945, 226.352 93.663, 233.804 90.170 C 238.787 87.834, 240.752 87.500, 249.500 87.500 C 258.412 87.500, 260.116 87.803, 265.164 90.281 C 272.702 93.983, 278.635 100.080, 282.405 108 C 285.065 113.587, 285.500 115.624, 285.500 122.500 C 285.500 139.171, 276.212 152.335, 260.750 157.577 L 256 159.188 256 173.094 L 256 187 258.606 187 C 268.954 187, 284.678 179.337, 294.500 169.506 C 302.487 161.512, 307.010 154.362, 310.741 143.835 C 314.211 134.041, 315.067 115.818, 312.517 106 C 307.085 85.080, 290.011 67.945, 267.836 61.158 C 260.158 58.808, 246.811 57.768, 239.387 58.940 M 35.238 91.377 C 31.891 98.723, 22.989 104.936, 15.750 104.978 L 12 105 12 147 L 12 189 24.500 189 L 37 189 37 139 C 37 111.500, 36.847 89, 36.661 89 C 36.474 89, 35.834 90.070, 35.238 91.377" stroke="none" fill="#43bbd3" fill-rule="evenodd"/></svg>